<svg width="446" height="429" viewBox="0 0 446 429" fill="none" xmlns="http://www.w3.org/2000/svg">
<path d="M123.048 91.3145C108.785 99.0926 42.5415 120.348 34.1177 122.293C10.5518 130.04 -1.72259 153.914 4.68964 173.219C12.6569 197.207 52.1126 202.373 52.1126 202.373C164.678 202.805 389.577 203.837 403.059 202.8C419.912 201.503 442.598 176.873 443.246 139.927C443.894 102.982 391.392 37.5165 377.781 31.683C364.169 25.8495 349.91 47.2391 335.65 48.5354C321.39 49.8317 312.316 42.7019 308.427 31.683C304.538 20.6641 306.482 8.34889 291.574 3.8117C276.667 -0.725477 258.518 14.8305 246.851 23.9049C235.184 32.9792 137.31 83.5364 123.048 91.3145Z" stroke="white" stroke-width="5"/>
<path d="M323.204 314.161C337.466 321.939 403.709 343.195 412.133 345.139C435.699 352.887 447.973 376.76 441.561 396.066C433.594 420.053 394.138 425.219 394.138 425.219C281.574 425.652 56.6757 426.683 43.1939 425.646C26.3416 424.349 3.65585 399.719 3.00769 362.774C2.35953 325.828 54.8609 260.364 68.4724 254.53C82.0838 248.697 96.3432 270.086 110.603 271.383C124.862 272.679 133.937 265.549 137.826 254.53C141.715 243.511 139.77 231.196 154.678 226.659C169.586 222.122 187.734 237.678 199.401 246.752C211.068 255.826 308.941 306.383 323.204 314.161Z" stroke="white" stroke-width="5"/>
</svg>
