<svg width="323" height="310" viewBox="0 0 323 310" fill="none" xmlns="http://www.w3.org/2000/svg">
<path d="M89.6599 66.5385C79.4217 72.1219 31.869 87.38 25.8221 88.7759C8.90536 94.3376 0.0942926 111.475 4.69727 125.333C10.4165 142.553 38.7395 146.261 38.7395 146.261C119.544 146.572 280.987 147.312 290.665 146.567C302.762 145.637 319.047 127.956 319.512 101.435C319.977 74.9137 282.289 27.9199 272.518 23.7324C262.747 19.5448 252.511 34.8992 242.275 35.8298C232.039 36.7603 225.525 31.6422 222.733 23.7324C219.941 15.8226 221.337 6.98212 210.636 3.72513C199.934 0.468144 186.906 11.6349 178.531 18.1489C170.156 24.6629 99.898 60.955 89.6599 66.5385Z" stroke="white" stroke-width="5"/>
<path d="M233.341 226.508C243.579 232.091 291.131 247.349 297.178 248.745C314.095 254.307 322.906 271.444 318.303 285.302C312.584 302.521 284.261 306.23 284.261 306.23C203.457 306.54 42.0152 307.281 32.3373 306.536C20.24 305.606 3.95517 287.925 3.4899 261.404C3.02463 234.883 40.7124 187.89 50.4833 183.702C60.2542 179.514 70.4902 194.869 80.7264 195.799C90.9626 196.73 97.4765 191.612 100.268 183.702C103.06 175.792 101.664 166.952 112.366 163.695C123.067 160.438 136.095 171.605 144.47 178.119C152.845 184.632 223.103 220.924 233.341 226.508Z" stroke="white" stroke-width="5"/>
</svg>
