<svg width="547" height="547" viewBox="0 0 547 547" fill="none" xmlns="http://www.w3.org/2000/svg">
<path fill-rule="evenodd" clip-rule="evenodd" d="M0 0H547V547H0V0ZM178.048 150.314C163.785 158.093 97.5415 179.348 89.1178 181.293C65.5518 189.04 53.2774 212.914 59.6896 232.219C67.6569 256.207 107.113 261.373 107.113 261.373C119.455 261.421 133.149 261.475 147.766 261.534L147.879 261.534H147.884C266.575 262.007 446.06 262.723 458.059 261.8C474.912 260.503 497.598 235.873 498.246 198.927C498.894 161.982 446.392 96.5165 432.781 90.683C425.005 87.3506 417.018 92.902 408.94 98.5165C402.877 102.73 396.764 106.98 390.65 107.535C376.39 108.832 367.316 101.702 363.427 90.683C362.462 87.9494 361.856 85.1361 361.263 82.3815C359.465 74.0325 357.784 66.2233 346.574 62.8117C332.757 58.6063 316.155 71.663 304.51 80.8207C303.592 81.5431 302.704 82.2413 301.851 82.9049C292.931 89.8425 233.622 121.028 199.813 138.805L199.812 138.805C189.4 144.28 181.406 148.483 178.048 150.314ZM467.133 404.139C458.709 402.195 392.466 380.939 378.204 373.161C374.845 371.33 366.852 367.127 356.439 361.652C322.63 343.875 263.321 312.69 254.401 305.752C253.548 305.089 252.661 304.391 251.742 303.668C240.098 294.51 223.496 281.454 209.678 285.659C198.469 289.071 196.787 296.88 194.989 305.229C194.396 307.983 193.791 310.797 192.826 313.53C188.937 324.549 179.862 331.679 165.603 330.383C159.489 329.827 153.376 325.578 147.313 321.364C139.235 315.749 131.248 310.198 123.472 313.53C109.861 319.364 57.3595 384.828 58.0077 421.774C58.6559 458.719 81.3416 483.349 98.1939 484.646C110.194 485.569 289.699 484.853 408.39 484.38C423.043 484.322 436.769 484.267 449.138 484.219C449.138 484.219 488.594 479.053 496.561 455.066C502.973 435.76 490.699 411.887 467.133 404.139Z" fill="#C4C4C4" fill-opacity="0.5"/>
</svg>
