<svg width="393" height="710" viewBox="0 0 393 710" fill="none" xmlns="http://www.w3.org/2000/svg">
<path fill-rule="evenodd" clip-rule="evenodd" d="M0 0H393V709.092H0V0ZM124.66 267.621C114.422 273.205 66.869 288.463 60.8221 289.859C43.9054 295.42 35.0943 312.558 39.6973 326.416C45.4165 343.635 73.7395 347.344 73.7395 347.344C82.6239 347.378 92.4831 347.418 103.008 347.46L103.03 347.46C188.233 347.799 317.051 348.313 325.665 347.65C337.762 346.72 354.047 329.039 354.512 302.518C354.977 275.996 317.289 229.003 307.518 224.815C301.937 222.423 296.203 226.408 290.405 230.438C286.053 233.463 281.664 236.514 277.275 236.913C267.039 237.843 260.525 232.725 257.733 224.815C257.041 222.853 256.606 220.834 256.18 218.856L256.18 218.856C254.89 212.863 253.682 207.257 245.636 204.808C235.717 201.789 223.799 211.162 215.44 217.736C214.781 218.254 214.144 218.755 213.531 219.232C207.128 224.212 164.554 246.597 140.284 259.359L140.274 259.364C132.804 263.292 127.07 266.307 124.66 267.621ZM332.178 449.828C326.131 448.432 278.579 433.174 268.341 427.591C265.93 426.276 260.192 423.259 252.717 419.329C228.448 406.568 185.873 384.181 179.47 379.201C178.858 378.725 178.22 378.224 177.561 377.705C169.202 371.131 157.285 361.759 147.366 364.778C139.319 367.227 138.112 372.832 136.821 378.826C136.396 380.803 135.961 382.822 135.268 384.785C132.477 392.695 125.963 397.813 115.726 396.882C111.338 396.483 106.949 393.433 102.597 390.408C96.7985 386.378 91.065 382.393 85.4833 384.785C75.7124 388.972 38.0246 435.966 38.4899 462.487C38.9552 489.008 55.24 506.688 67.3373 507.619C75.9513 508.282 204.797 507.768 289.998 507.428C300.521 507.386 310.378 507.347 319.261 507.313C319.261 507.313 347.584 503.604 353.303 486.385C357.906 472.527 349.095 455.389 332.178 449.828Z" fill="#C4C4C4" fill-opacity="0.5"/>
</svg>
